<svg width="36" height="32" viewBox="0 0 36 32" fill="none" xmlns="http://www.w3.org/2000/svg">
<rect width="35.6398" height="32" fill="#83BCC3"/>
<path d="M25.6161 9V23H10.0237V9H25.6161ZM25.6161 7H10.0237C8.79858 7 7.79621 7.9 7.79621 9V23C7.79621 24.1 8.79858 25 10.0237 25H25.6161C26.8412 25 27.8436 24.1 27.8436 23V9C27.8436 7.9 26.8412 7 25.6161 7Z" fill="white"/>
<path d="M12.7078 13L17.8199 17.58L22.932 13L24.5024 14.41L17.8199 20.41L11.1374 14.41L12.7078 13Z" fill="white"/>
<path d="M12.7078 13L17.8199 17.58L22.932 13L24.5024 14.41L17.8199 20.41L11.1374 14.41L12.7078 13Z" fill="white"/>
</svg>
