<svg width="15" height="15" viewBox="0 0 15 15" fill="none" xmlns="http://www.w3.org/2000/svg">
<path d="M9.74216 7.49983L14.5354 2.70661C15.1547 2.08732 15.1547 1.08386 14.5354 0.464563C13.9161 -0.154732 12.9126 -0.154732 12.2933 0.464563L7.50013 5.25832L2.70692 0.465102C2.08762 -0.154193 1.08416 -0.154193 0.464868 0.465102C-0.154427 1.0844 -0.154427 2.08786 0.464868 2.70715L5.25808 7.50037L0.464868 12.2936C-0.154427 12.9129 -0.154427 13.9163 0.464868 14.5356C1.08416 15.1549 2.08762 15.1549 2.70692 14.5356L7.50013 9.74242L12.2933 14.5356C12.9126 15.1549 13.9161 15.1549 14.5354 14.5356C15.1547 13.9163 15.1547 12.9129 14.5354 12.2936L9.74216 7.49983Z" fill="#CCE6E8"/>
</svg>
