<svg width="20" height="20" viewBox="0 0 20 20" fill="none" xmlns="http://www.w3.org/2000/svg">
<path d="M0.488131 17.1552L4.71901 12.9243C3.84483 11.6068 3.33316 10.0293 3.33316 8.33342C3.33316 3.73837 7.07153 0 11.6666 0C16.2616 0 20 3.73837 20 8.33342C20 12.9285 16.2616 16.6668 11.6666 16.6668C9.97073 16.6668 8.39321 16.1552 7.0757 15.281L2.84482 19.5119C2.19481 20.1627 1.13814 20.1627 0.488131 19.5119C-0.16271 18.861 -0.16271 17.806 0.488131 17.1552ZM17.5 8.33342C17.5 5.11672 14.8833 2.50003 11.6666 2.50003C8.44988 2.50003 5.83319 5.11672 5.83319 8.33342C5.83319 11.5501 8.44988 14.1668 11.6666 14.1668C14.8833 14.1668 17.5 11.5501 17.5 8.33342Z" fill="#CCE6E8"/>
</svg>
