<svg width="20" height="20" viewBox="0 0 20 20" fill="none" xmlns="http://www.w3.org/2000/svg">
<g clip-path="url(#clip0_1400_45)">
<path d="M10 0C4.46939 0 0 4.46939 0 10C0 15.5306 4.46939 20 10 20C15.5306 20 20 15.5306 20 10C20 4.46939 15.5306 0 10 0ZM10 18.3388C5.40408 18.3388 1.66122 14.5959 1.66122 10C1.66122 5.40408 5.40408 1.66122 10 1.66122C14.5959 1.66122 18.3388 5.40408 18.3388 10C18.3388 14.5959 14.5959 18.3388 10 18.3388Z" fill="white"/>
<path d="M11.8735 9.14694H10.8531V5.23265C10.8531 4.76327 10.4694 4.37959 10 4.37959C9.53062 4.37959 9.14694 4.76327 9.14694 5.23265V10C9.14694 10.4694 9.53062 10.8531 10 10.8531H11.8735C12.3429 10.8531 12.7265 10.4694 12.7265 10C12.7265 9.53061 12.3388 9.14694 11.8735 9.14694Z" fill="white"/>
</g>
<defs>
<clipPath id="clip0_1400_45">
<rect width="20" height="20" fill="white"/>
</clipPath>
</defs>
</svg>
